# xmcd
#
# Track frame offsets: 
#        182
#        12640
#        32960
#        48937
#        62730
#        75425
#        86457
#        100062
#        113255
#        123055
#        142302
#        155132
#
# Disc length: 2235 seconds
#
# Revision: 1
# Processed by: cddbd v1.5.2PL0 Copyright (c) Steve Scherf et al.
# Submitted via: ExactAudioCopy v1.0b3
#
DISCID=9408b90c
DTITLE=Sammy Davis Jr - The Wham Of Sam
DYEAR=1994
DGENRE=Jazz
TTITLE0=A Lot Of Livin' To Do
TTITLE1=Begin The Beguine
TTITLE2=My Romance
TTITLE3=Too Close To Comfort
TTITLE4=Soon
TTITLE5=Falling In Love With You
TTITLE6=Thou Swell
TTITLE7=Can't We Be Friends
TTITLE8=Guys And Dolls
TTITLE9=Blame It On My Youth
TTITLE10=Let There Be Love
TTITLE11=Bye Bye Blackbird
EXTD=YEAR: 1994
EXTT0=
EXTT1=
EXTT2=
EXTT3=
EXTT4=
EXTT5=
EXTT6=
EXTT7=
EXTT8=
EXTT9=
EXTT10=
EXTT11=
PLAYORDER=
